<svg xmlns="http://www.w3.org/2000/svg" width="320" height="200" viewBox="0 0 320 200"><defs><radialGradient id="gH" cx="33%" cy="28%"><stop offset="0%" stop-color="#ffffff"/><stop offset="70%" stop-color="#ffffff"/><stop offset="100%" stop-color="#cecece"/></radialGradient><radialGradient id="gC" cx="33%" cy="28%"><stop offset="0%" stop-color="#555555"/><stop offset="70%" stop-color="#555555"/><stop offset="100%" stop-color="#111111"/></radialGradient><radialGradient id="gO" cx="33%" cy="28%"><stop offset="0%" stop-color="#ff655f"/><stop offset="70%" stop-color="#ff655f"/><stop offset="100%" stop-color="#a91310"/></radialGradient><radialGradient id="gN" cx="33%" cy="28%"><stop offset="0%" stop-color="#668fea"/><stop offset="70%" stop-color="#668fea"/><stop offset="100%" stop-color="#173b8f"/></radialGradient><radialGradient id="gS" cx="33%" cy="28%"><stop offset="0%" stop-color="#ffe25b"/><stop offset="70%" stop-color="#ffe25b"/><stop offset="100%" stop-color="#c49a00"/></radialGradient><radialGradient id="gCl" cx="33%" cy="28%"><stop offset="0%" stop-color="#68d86c"/><stop offset="70%" stop-color="#68d86c"/><stop offset="100%" stop-color="#178a28"/></radialGradient></defs><line x1="24.7" y1="100.0" x2="65.3" y2="100.0" stroke="#b8b8b8" stroke-width="6.2" stroke-linecap="round"/><line x1="24.7" y1="100.0" x2="7.6" y2="78.2" stroke="#b8b8b8" stroke-width="4.7" stroke-linecap="round"/><line x1="24.7" y1="100.0" x2="6.0" y2="120.3" stroke="#b8b8b8" stroke-width="4.7" stroke-linecap="round"/><line x1="24.7" y1="100.0" x2="25.5" y2="127.3" stroke="#b8b8b8" stroke-width="4.7" stroke-linecap="round"/><line x1="65.3" y1="100.0" x2="82.4" y2="78.2" stroke="#b8b8b8" stroke-width="4.7" stroke-linecap="round"/><line x1="65.3" y1="100.0" x2="84.0" y2="120.3" stroke="#b8b8b8" stroke-width="4.7" stroke-linecap="round"/><line x1="65.3" y1="100.0" x2="64.5" y2="127.3" stroke="#b8b8b8" stroke-width="4.7" stroke-linecap="round"/><circle cx="24.7" cy="100.0" r="16.4" fill="url(#gC)" stroke="#111111" stroke-width="1.5"/><circle cx="65.3" cy="100.0" r="16.4" fill="url(#gC)" stroke="#111111" stroke-width="1.5"/><circle cx="7.6" cy="78.2" r="11.7" fill="url(#gH)" stroke="#cecece" stroke-width="1.5"/><circle cx="6.0" cy="120.3" r="11.7" fill="url(#gH)" stroke="#cecece" stroke-width="1.5"/><circle cx="25.5" cy="127.3" r="11.7" fill="url(#gH)" stroke="#cecece" stroke-width="1.5"/><circle cx="82.4" cy="78.2" r="11.7" fill="url(#gH)" stroke="#cecece" stroke-width="1.5"/><circle cx="84.0" cy="120.3" r="11.7" fill="url(#gH)" stroke="#cecece" stroke-width="1.5"/><circle cx="64.5" cy="127.3" r="11.7" fill="url(#gH)" stroke="#cecece" stroke-width="1.5"/><line x1="254.7" y1="100.0" x2="295.3" y2="100.0" stroke="#b8b8b8" stroke-width="6.2" stroke-linecap="round"/><line x1="254.7" y1="100.0" x2="237.6" y2="78.2" stroke="#b8b8b8" stroke-width="4.7" stroke-linecap="round"/><line x1="254.7" y1="100.0" x2="236.0" y2="120.3" stroke="#b8b8b8" stroke-width="4.7" stroke-linecap="round"/><line x1="254.7" y1="100.0" x2="255.5" y2="127.3" stroke="#b8b8b8" stroke-width="4.7" stroke-linecap="round"/><line x1="295.3" y1="100.0" x2="312.4" y2="78.2" stroke="#b8b8b8" stroke-width="4.7" stroke-linecap="round"/><line x1="295.3" y1="100.0" x2="314.0" y2="120.3" stroke="#b8b8b8" stroke-width="4.7" stroke-linecap="round"/><line x1="295.3" y1="100.0" x2="294.5" y2="127.3" stroke="#b8b8b8" stroke-width="4.7" stroke-linecap="round"/><circle cx="254.7" cy="100.0" r="16.4" fill="url(#gC)" stroke="#111111" stroke-width="1.5"/><circle cx="295.3" cy="100.0" r="16.4" fill="url(#gC)" stroke="#111111" stroke-width="1.5"/><circle cx="237.6" cy="78.2" r="11.7" fill="url(#gH)" stroke="#cecece" stroke-width="1.5"/><circle cx="236.0" cy="120.3" r="11.7" fill="url(#gH)" stroke="#cecece" stroke-width="1.5"/><circle cx="255.5" cy="127.3" r="11.7" fill="url(#gH)" stroke="#cecece" stroke-width="1.5"/><circle cx="312.4" cy="78.2" r="11.7" fill="url(#gH)" stroke="#cecece" stroke-width="1.5"/><circle cx="314.0" cy="120.3" r="11.7" fill="url(#gH)" stroke="#cecece" stroke-width="1.5"/><circle cx="294.5" cy="127.3" r="11.7" fill="url(#gH)" stroke="#cecece" stroke-width="1.5"/></svg>